<?xml version="1.0" encoding="utf-8" ?>
<svg xmlns="http://www.w3.org/2000/svg" xmlns:xlink="http://www.w3.org/1999/xlink" width="16" height="15">
	<defs>
		<clipPath id="clip_0">
			<rect x="-287.97998" y="-1580.1799" width="1353.6" height="3552.26" clip-rule="evenodd"/>
		</clipPath>
	</defs>
	<g clip-path="url(#clip_0)">
		<path fill="rgb(7,159,194)" stroke="none" transform="matrix(0.94 0 0 0.94 1.21076 1.00281)" d="M0.560684 14.6735L15.3162 14.6735C15.6308 14.6735 15.8769 14.4274 15.8769 14.1128L15.8769 1.6C15.8769 1.28547 15.6308 1.03932 15.3162 1.03932L12.5402 1.03932L12.5402 0.560684C12.5402 0.246154 12.294 0 11.9795 0C11.665 0 11.4188 0.246154 11.4188 0.560684L11.4188 1.03932L4.55385 1.03932L4.55385 0.560684C4.55385 0.246154 4.30769 0 3.99316 0C3.67863 0 3.43248 0.246154 3.43248 0.560684L3.43248 1.03932L0.560684 1.03932C0.246154 1.03932 0 1.28547 0 1.6L0 14.1265C0 14.4274 0.259829 14.6735 0.560684 14.6735ZM1.12137 2.16068L3.43248 2.16068L3.43248 2.46154C3.43248 2.77607 3.67863 3.02222 3.99316 3.02222C4.30769 3.02222 4.55385 2.77607 4.55385 2.46154L4.55385 2.16068L11.4188 2.16068L11.4188 2.46154C11.4188 2.77607 11.665 3.02222 11.9795 3.02222C12.294 3.02222 12.5402 2.77607 12.5402 2.46154L12.5402 2.16068L14.7692 2.16068L14.7692 3.61026L1.12137 3.61026L1.12137 2.16068ZM14.7556 4.73162L1.12137 4.73162L1.12137 13.5658L14.7556 13.5658L14.7556 4.73162Z" fill-rule="evenodd"/>
	</g>
	<defs>
		<clipPath id="clip_1">
			<rect x="-287.97998" y="-1580.1799" width="1353.6" height="3552.26" clip-rule="evenodd"/>
		</clipPath>
	</defs>
	<g clip-path="url(#clip_1)">
		<path fill="rgb(7,159,194)" stroke="none" transform="matrix(0.94 0 0 0.94 4.36016 7.86731)" d="M8.62906 0L0.560684 0C0.246154 0 0 0.246154 0 0.560684C0 0.875214 0.246154 1.12137 0.560684 1.12137L8.62906 1.12137C8.94359 1.12137 9.18974 0.875214 9.18974 0.560684C9.18974 0.246154 8.94359 0 8.62906 0Z"/>
	</g>
	<defs>
		<clipPath id="clip_2">
			<rect x="-287.97998" y="-1580.1799" width="1353.6" height="3552.26" clip-rule="evenodd"/>
		</clipPath>
	</defs>
	<g clip-path="url(#clip_2)">
		<path fill="rgb(7,159,194)" stroke="none" transform="matrix(0.94 0 0 0.94 4.36016 10.4125)" d="M4.59487 0L0.560684 0C0.246154 0 0 0.246154 0 0.560684C0 0.875214 0.246154 1.12137 0.560684 1.12137L4.59487 1.12137C4.9094 1.12137 5.15556 0.875214 5.15556 0.560684C5.15556 0.246154 4.9094 0 4.59487 0Z"/>
	</g>

</svg>