<?xml version="1.0" encoding="utf-8" ?>
<svg xmlns="http://www.w3.org/2000/svg" xmlns:xlink="http://www.w3.org/1999/xlink" width="16" height="15">
	<defs>
		<clipPath id="clip_0">
			<rect x="-1398" y="-366" width="1440" height="3779" clip-rule="evenodd"/>
		</clipPath>
	</defs>
	<g clip-path="url(#clip_0)">
		<path fill="rgb(255,255,255)" stroke="none" d="M0.56503 15L15.435 15C15.7519 15 16 14.7484 16 14.4268L16 1.6356C16 1.31407 15.7519 1.06244 15.435 1.06244L12.6374 1.06244L12.6374 0.573159C12.6374 0.251631 12.3893 0 12.0724 0C11.7554 0 11.5073 0.251631 11.5073 0.573159L11.5073 1.06244L4.58915 1.06244L4.58915 0.573159C4.58915 0.251631 4.34109 0 4.02412 0C3.70715 0 3.45909 0.251631 3.45909 0.573159L3.45909 1.06244L0.56503 1.06244C0.248062 1.06244 0 1.31407 0 1.6356L0 14.4408C0 14.7484 0.261843 15 0.56503 15ZM1.13006 2.20876L3.45909 2.20876L3.45909 2.51631C3.45909 2.83784 3.70715 3.08947 4.02412 3.08947C4.34109 3.08947 4.58915 2.83784 4.58915 2.51631L4.58915 2.20876L11.5073 2.20876L11.5073 2.51631C11.5073 2.83784 11.7554 3.08947 12.0724 3.08947C12.3893 3.08947 12.6374 2.83784 12.6374 2.51631L12.6374 2.20876L14.8837 2.20876L14.8837 3.69059L1.13006 3.69059L1.13006 2.20876ZM14.8699 4.83691L1.13006 4.83691L1.13006 13.8677L14.8699 13.8677L14.8699 4.83691Z" fill-rule="evenodd"/>
	</g>
	<defs>
		<clipPath id="clip_1">
			<rect x="-1398" y="-366" width="1440" height="3779" clip-rule="evenodd"/>
		</clipPath>
	</defs>
	<g clip-path="url(#clip_1)">
		<path fill="rgb(255,255,255)" stroke="none" transform="translate(3 7)" d="M8.45089 0L0.549107 0C0.241071 0 0 0.219512 0 0.5C0 0.780488 0.241071 1 0.549107 1L8.45089 1C8.75893 1 9 0.780488 9 0.5C9 0.219512 8.75893 0 8.45089 0Z"/>
	</g>
	<defs>
		<clipPath id="clip_2">
			<rect x="-1398" y="-366" width="1440" height="3779" clip-rule="evenodd"/>
		</clipPath>
	</defs>
	<g clip-path="url(#clip_2)">
		<path fill="rgb(255,255,255)" stroke="none" transform="translate(3 10)" d="M4.45623 0L0.543767 0C0.238727 0 0 0.219512 0 0.5C0 0.780488 0.238727 1 0.543767 1L4.45623 1C4.76127 1 5 0.780488 5 0.5C5 0.219512 4.76127 0 4.45623 0Z"/>
	</g>

</svg>