<?xml version="1.0" encoding="utf-8" ?>
<svg xmlns="http://www.w3.org/2000/svg" xmlns:xlink="http://www.w3.org/1999/xlink" width="14" height="14">
	<defs>
		<clipPath id="clip_0">
			<rect x="-440" y="-1682" width="1440" height="3779" clip-rule="evenodd"/>
		</clipPath>
	</defs>
	<g clip-path="url(#clip_0)">
		<path fill="rgb(7,159,194)" stroke="none" transform="translate(0.580215 0.00256348)" d="M13.8024 0.192609C13.5459 -0.0642031 13.1297 -0.0642031 12.8732 0.192609L0.192527 12.8733C-0.0641758 13.1299 -0.0641758 13.5458 0.192527 13.8024C0.320824 13.9308 0.489043 13.995 0.657152 13.995C0.825262 13.995 0.99348 13.9308 1.12167 13.8024L13.8024 1.12164C14.0591 0.865047 14.0591 0.449203 13.8024 0.192609Z"/>
	</g>
	<defs>
		<clipPath id="clip_1">
			<rect x="-440" y="-1682" width="1440" height="3779" clip-rule="evenodd"/>
		</clipPath>
	</defs>
	<g clip-path="url(#clip_1)">
		<path fill="rgb(7,159,194)" stroke="none" transform="translate(0.57576 0.00695801)" d="M0 3.12123C0 1.40033 1.40022 0 3.12112 0C4.84203 0 6.24225 1.40022 6.24225 3.12112C6.24225 4.84203 4.84214 6.24236 3.12112 6.24236C1.40022 6.24236 0 4.84214 0 3.12123ZM1.31414 3.12113C1.31414 4.11742 2.12472 4.92811 3.12113 4.92811C4.11753 4.92811 4.92811 4.11742 4.92811 3.12113C4.92811 2.12483 4.11753 1.31414 3.12113 1.31414C2.12483 1.31414 1.31414 2.12483 1.31414 3.12113Z" fill-rule="evenodd"/>
	</g>
	<defs>
		<clipPath id="clip_2">
			<rect x="-440" y="-1682" width="1440" height="3779" clip-rule="evenodd"/>
		</clipPath>
	</defs>
	<g clip-path="url(#clip_2)">
		<path fill="rgb(7,159,194)" stroke="none" transform="translate(8.33351 7.75464)" d="M0 3.12112C0 1.40022 1.40022 0 3.12112 0C4.84203 0 6.24225 1.40011 6.24225 3.12112C6.24225 4.84214 4.84203 6.24225 3.12112 6.24225C1.40022 6.24225 0 4.84203 0 3.12112ZM1.31414 3.12102C1.31414 4.11731 2.12472 4.928 3.12113 4.928C4.11753 4.928 4.92811 4.11731 4.92811 3.12102C4.92811 2.12472 4.11742 1.31403 3.12113 1.31403C2.12483 1.31403 1.31414 2.12472 1.31414 3.12102Z" fill-rule="evenodd"/>
	</g>

</svg>