<?xml version="1.0" encoding="utf-8" ?>
<svg xmlns="http://www.w3.org/2000/svg" xmlns:xlink="http://www.w3.org/1999/xlink" width="18" height="18">
	<defs>
		<clipPath id="clip_0">
			<rect x="-545" y="-1680" width="1440" height="3779" clip-rule="evenodd"/>
		</clipPath>
	</defs>
	<g clip-path="url(#clip_0)">
		<path fill="rgb(7,159,194)" stroke="none" transform="translate(0.615387 0)" d="M0 9C0 4.03762 4.03762 0 9 0C13.9624 0 18 4.03762 18 9C18 13.9624 13.9624 18 9 18C4.03762 18 0 13.9624 0 9ZM1.125 9C1.125 13.3425 4.65862 16.875 9 16.875C13.3414 16.875 16.875 13.3425 16.875 9C16.875 4.6575 13.3414 1.125 9 1.125C4.65862 1.125 1.125 4.6575 1.125 9Z" fill-rule="evenodd"/>
	</g>
	<defs>
		<clipPath id="clip_1">
			<rect x="-545" y="-1680" width="1440" height="3779" clip-rule="evenodd"/>
		</clipPath>
	</defs>
	<g clip-path="url(#clip_1)">
		<path fill="rgb(7,159,194)" stroke="none" transform="translate(6.24039 4.5)" d="M2.8125 0L5.625 0C6.86588 0 7.875 1.00912 7.875 2.25C7.875 3.49088 6.86588 4.5 5.625 4.5L3.375 4.5L3.375 5.625L5.0625 5.625C5.373 5.625 5.625 5.877 5.625 6.1875C5.625 6.498 5.373 6.75 5.0625 6.75L3.375 6.75L3.375 8.4375C3.375 8.748 3.123 9 2.8125 9C2.502 9 2.25 8.748 2.25 8.4375L2.25 6.75L0.5625 6.75C0.252 6.75 0 6.498 0 6.1875C0 5.877 0.252 5.625 0.5625 5.625L2.25 5.625L2.25 0.5625C2.25 0.252 2.502 0 2.8125 0ZM3.375 3.375L5.625 3.375C6.246 3.375 6.75 2.86987 6.75 2.25C6.75 1.63013 6.246 1.125 5.625 1.125L3.375 1.125L3.375 3.375Z" fill-rule="evenodd"/>
	</g>

</svg>