<?xml version="1.0" encoding="utf-8" ?>
<svg xmlns="http://www.w3.org/2000/svg" xmlns:xlink="http://www.w3.org/1999/xlink" width="4" height="7">
	<defs>
		<clipPath id="clip_0">
			<rect x="-188.62999" y="-381.83002" width="1281.6" height="3363.3101" clip-rule="evenodd"/>
		</clipPath>
	</defs>
	<g clip-path="url(#clip_0)">
		<path fill="rgb(64,72,83)" fill-opacity="0.25490198" stroke="none" transform="matrix(3.89031e-08 0.89 0.89 -3.89031e-08 0.940002 0.869995)" d="M6.6639 0.334315L6.44206 0.110943C6.37225 0.0411838 6.27937 0.00275293 6.1801 0.00275293C6.08088 0.00275293 5.98789 0.0411838 5.91807 0.110943L3.38758 2.64154L0.854178 0.108135C0.784474 0.0383758 0.69148 0 0.592264 0C0.493049 0 0.4 0.0383758 0.330241 0.108135L0.108355 0.330131C-0.0361184 0.474494 -0.0361184 0.709649 0.108355 0.854012L3.12468 3.88118C3.19438 3.95089 3.28727 4 3.38736 4L3.38852 4C3.48779 4 3.58067 3.95083 3.65038 3.88118L6.6639 0.862216C6.73371 0.792512 6.77203 0.69682 6.77214 0.597605C6.77214 0.498334 6.73371 0.403964 6.6639 0.334315Z"/>
	</g>

</svg>