<?xml version="1.0" encoding="utf-8" ?>
<svg xmlns="http://www.w3.org/2000/svg" xmlns:xlink="http://www.w3.org/1999/xlink" width="18" height="14">
	<defs>
		<clipPath id="clip_0">
			<rect x="-1099.8398" y="-1267.9119" width="1439.136" height="3776.7327" clip-rule="evenodd"/>
		</clipPath>
	</defs>
	<g clip-path="url(#clip_0)">
		<path fill="rgb(7,159,194)" stroke="none" transform="matrix(0.9994 0 0 0.9994 13.2624 2.3219)" d="M0.900163 0.154345C0.694182 -0.0514951 0.360303 -0.05146 0.154358 0.154521C-0.0515171 0.360501 -0.0514468 0.69438 0.154534 0.900325C0.939502 1.68491 1.37178 2.72648 1.37178 3.83324C1.37178 4.93992 0.939502 5.98153 0.154534 6.76622C-0.0514468 6.97209 -0.0515171 7.30601 0.154393 7.51199C0.360198 7.71793 0.694112 7.71807 0.900163 7.51213C1.88443 6.52828 2.42647 5.22177 2.42647 3.83324C2.42647 2.44467 1.8844 1.13816 0.900163 0.154345Z"/>
	</g>
	<defs>
		<clipPath id="clip_1">
			<rect x="-1099.8398" y="-1267.9119" width="1439.136" height="3776.7327" clip-rule="evenodd"/>
		</clipPath>
	</defs>
	<g clip-path="url(#clip_1)">
		<path fill="rgb(7,159,194)" stroke="none" transform="matrix(0.9994 0 0 0.9994 15.2451 0.339111)" d="M0.90029 0.154485C0.694345 -0.05146 0.360466 -0.0514951 0.154485 0.15438C-0.05146 0.360325 -0.0514951 0.694204 0.15438 0.900185C1.46771 2.21383 2.19098 3.96004 2.19098 5.81714C2.19098 7.67427 1.46768 9.42048 0.15438 10.7341C-0.0514951 10.9401 -0.05146 11.274 0.154485 11.4799C0.360536 11.6858 0.694415 11.6857 0.90029 11.4798C2.41275 9.96695 3.24567 7.95594 3.24567 5.81714C3.24567 3.67837 2.41275 1.66736 0.90029 0.154485Z"/>
	</g>
	<defs>
		<clipPath id="clip_2">
			<rect x="-1099.8398" y="-1267.9119" width="1439.136" height="3776.7327" clip-rule="evenodd"/>
		</clipPath>
	</defs>
	<g clip-path="url(#clip_2)">
		<path fill="rgb(7,159,194)" stroke="none" transform="matrix(0.9994 0 0 0.9994 0.499634 1.79456)" d="M9.49908 0.527353L9.49908 2.30489C10.4048 2.53949 11.0758 3.36386 11.0758 4.34202C11.0758 5.32017 10.4049 6.14451 9.49904 6.37915L9.49904 8.15668C9.49904 8.33197 9.41193 8.4958 9.26663 8.59388C9.12407 8.69 8.93985 8.71257 8.77423 8.64567L4.62952 6.9717L4.37295 6.9717L2.47409 11.2148C2.37245 11.4419 2.12572 11.5672 1.88262 11.5151C1.6393 11.4631 1.46542 11.2482 1.46542 10.9994L1.46542 6.97167L0.527344 6.97167C0.236109 6.97167 0 6.73556 0 6.44433L0 2.23967C0 1.94844 0.236109 1.71233 0.527344 1.71233L4.62955 1.71233L8.77426 0.0383647C8.93679 -0.0272369 9.12132 -0.00790097 9.26666 0.090185C9.412 0.188201 9.49908 0.352029 9.49908 0.527353ZM4.9295 5.95541C4.86675 5.93002 4.79971 5.91702 4.73203 5.91702L1.05469 5.91702L1.05469 2.76705L4.732 2.76705C4.79967 2.76705 4.86672 2.75404 4.92947 2.72866L8.44436 1.30905C8.44436 1.97358 8.44436 6.71967 8.44439 7.37502L4.9295 5.95541ZM9.49904 3.43495L9.49904 5.24905C9.81102 5.06697 10.0211 4.72856 10.0211 4.34202C10.0211 3.95547 9.81102 3.61706 9.49904 3.43495ZM2.52011 6.97167L2.52011 8.53004L3.2175 6.97167L2.52011 6.97167Z" fill-rule="evenodd"/>
	</g>

</svg>